<svg id="Layer_1" data-name="Layer 1" xmlns="http://www.w3.org/2000/svg" xmlns:xlink="http://www.w3.org/1999/xlink" viewBox="0 0 210.48 203.35"><defs><style>.cls-1{fill:url(#linear-gradient);}.cls-2{fill:url(#linear-gradient-2);}.cls-3{fill:url(#linear-gradient-3);}</style><linearGradient id="linear-gradient" x1="25.36" y1="95.06" x2="210.48" y2="95.06" gradientUnits="userSpaceOnUse"><stop offset="0.12" stop-color="#0d123c"/><stop offset="1" stop-color="#3f55a5"/></linearGradient><linearGradient id="linear-gradient-2" x1="4.75" y1="113.67" x2="210.56" y2="113.88" gradientUnits="userSpaceOnUse"><stop offset="0" stop-color="#3f55a5"/><stop offset="0.15" stop-color="#3e53a3"/><stop offset="0.23" stop-color="#3a4e9b"/><stop offset="0.29" stop-color="#34468d"/><stop offset="0.35" stop-color="#2a3979"/><stop offset="0.4" stop-color="#1e2960"/><stop offset="0.45" stop-color="#101642"/><stop offset="0.45" stop-color="#0d123c"/></linearGradient><linearGradient id="linear-gradient-3" x1="69.51" y1="88.83" x2="126.79" y2="291.43" gradientUnits="userSpaceOnUse"><stop offset="0.26" stop-color="#0d123c"/><stop offset="0.34" stop-color="#3f55a5"/></linearGradient></defs><title>hadigali5</title><polygon class="cls-1" points="210.49 190.12 25.36 190.12 31.46 178.74 193.08 178.74 114.2 24.25 107.56 11.23 101.83 0.01 101.83 0 113.42 0 113.49 0.14 120.14 13.16 204.67 178.74 210.49 190.12"/><polygon class="cls-2" points="210.49 190.12 205.64 203.35 4.66 203.35 11.74 190.12 17.84 178.74 100.66 24.09 107.31 37.12 31.46 178.74 25.36 190.12 210.49 190.12"/><polygon class="cls-3" points="193.08 178.74 179.62 178.74 107.31 37.12 100.66 24.09 17.84 178.74 11.74 190.12 4.66 203.35 0 190.13 0 190.12 0.01 190.12 6.11 178.74 94.93 12.87 101.83 0.01 107.56 11.23 114.2 24.25 193.08 178.74"/></svg>